<svg width="17" height="19" viewBox="0 0 17 19" fill="none" xmlns="http://www.w3.org/2000/svg">
<path d="M9.34263 0C9.63755 0.0318104 9.943 0.0212069 10.2379 0.0106035C10.4486 0.0106035 10.6592 0.0212069 10.8699 0.0212069C10.9015 0.0530173 10.9331 0.0636207 10.9752 0.0318104C11.6493 0.106035 12.2918 0.286293 12.9238 0.508966C13.1344 0.615001 13.3451 0.721035 13.5558 0.82707C14.1983 1.20879 14.7776 1.67535 15.2937 2.20552C15.4306 2.36457 15.5675 2.52362 15.6939 2.68267C16.031 3.22345 16.3786 3.76423 16.5892 4.37923C16.6524 4.54888 16.7156 4.72914 16.7683 4.8988C16.8209 5.13207 16.8736 5.35475 16.9263 5.58802C17.0421 6.65897 16.9579 7.74052 17 8.82208C17 9.11897 17 9.42647 17 9.72337C16.9263 11.07 16.5366 12.3 15.7466 13.4028C14.7144 14.813 13.3451 15.7037 11.6388 16.043C11.6177 16.043 11.5861 16.0642 11.5651 16.0642C11.5229 16.043 11.4913 16.0536 11.4597 16.0854C11.1753 16.1067 10.9015 16.1385 10.6171 16.1597C10.3011 16.1597 9.98513 16.1597 9.66915 16.1597C8.86865 16.1597 8.06815 16.1597 7.27819 16.1597C7.1202 16.1597 7.01487 16.2127 6.90954 16.3293C6.08798 17.167 5.25589 17.9835 4.43432 18.8211C4.24473 19.012 4.06568 19.0756 3.83395 18.8848C3.73916 18.6515 3.80235 18.397 3.77076 18.1531C3.78129 17.326 3.78129 16.4884 3.79182 15.6613C3.79182 15.5235 3.71809 15.481 3.61276 15.428C3.50743 15.3856 3.41264 15.322 3.30731 15.2796C3.11772 15.1523 2.9176 15.0251 2.72801 14.8979C2.12763 14.4313 1.60099 13.8799 1.15861 13.2649C1.05328 13.0953 0.937423 12.915 0.832094 12.7454C0.421314 11.9607 0.157993 11.1336 0.0421314 10.2535C0.0210657 9.95665 0.0105328 9.64915 0 9.35225C0 8.54639 0.0105328 7.74052 0.0105328 6.93466C0.0105328 6.64837 0.0210657 6.35147 0.0210657 6.06518C0.0737299 5.72587 0.126394 5.39716 0.179058 5.05785C0.442379 4.18837 0.800496 3.35069 1.36927 2.62966C2.24349 1.50569 3.34944 0.721035 4.70818 0.296897C4.81351 0.265086 4.91884 0.222673 5.02416 0.180259C5.37175 0.127241 5.72986 0.0742242 6.07745 0.0212069C7.17286 0.0212069 8.25774 0.0106035 9.34263 0ZM9.02664 4.51707C9.3005 4.52768 9.57435 4.54888 9.85874 4.55949C10.6382 4.75035 11.2175 5.2063 11.6177 5.90613C11.6915 6.11819 11.7652 6.33026 11.8389 6.54233C11.881 6.79682 11.8916 7.0513 11.8705 7.30578C11.86 7.51785 11.9442 7.6663 12.1444 7.68751C12.3656 7.70871 12.4709 7.54966 12.4919 7.33759C12.5235 6.94526 12.5025 6.54233 12.355 6.17121C12.3234 5.93794 12.2286 5.72587 12.0812 5.535C11.6809 4.77156 11.07 4.26259 10.2379 4.03992C9.98513 3.93388 9.72181 3.89147 9.44796 3.90207C9.3005 3.90207 9.15304 3.89147 9.00558 3.91268C8.84758 3.94449 8.73172 4.05052 8.73172 4.22018C8.74226 4.40043 8.82652 4.52768 9.02664 4.51707ZM10.5012 2.78871C10.0273 2.62966 9.54275 2.60845 9.04771 2.64026C8.85812 2.65086 8.72119 2.7569 8.73172 2.95836C8.74226 3.17043 8.86865 3.27647 9.07931 3.26586C9.44796 3.24466 9.8166 3.29768 10.1747 3.32949C10.3854 3.39311 10.596 3.46733 10.8067 3.53095C11.5229 3.85966 12.1022 4.35802 12.5446 5.00483C12.6394 5.18509 12.7342 5.35475 12.829 5.535C13.1239 6.31966 13.2082 7.11492 13.0291 7.94199C12.987 8.13285 13.0818 8.2813 13.2819 8.30251C13.482 8.33432 13.5979 8.22828 13.64 8.03742C13.8612 7.0407 13.7664 6.07578 13.324 5.15328C13.2292 4.94121 13.1344 4.72914 12.9765 4.55949C12.5235 3.88087 11.9337 3.35069 11.1753 3.03259C10.9752 2.91595 10.7435 2.84173 10.5012 2.78871ZM10.6171 6.91345C10.6171 6.94526 10.6066 6.98768 10.6171 7.01949C10.6276 7.23156 10.733 7.38001 10.9436 7.3694C11.1648 7.3588 11.2491 7.21035 11.2385 6.98768C11.228 6.81802 11.228 6.63776 11.1332 6.47871C10.9542 5.73647 10.1537 5.12147 9.39529 5.15328C9.22677 5.16388 9.05824 5.18509 9.03718 5.41837C9.02664 5.64104 9.15304 5.75768 9.36369 5.78949C10.1221 5.89552 10.4275 6.18182 10.6171 6.91345ZM5.45601 3.72181C5.10843 3.61578 4.80297 3.69 4.53965 3.94449C4.2658 4.20957 3.99195 4.49587 3.71809 4.76095C3.35998 5.08966 3.22305 5.49259 3.26518 5.96975C3.22305 6.24544 3.29678 6.51052 3.38104 6.76501C3.57063 7.58147 3.97088 8.30251 4.44486 8.99173C4.55019 9.18259 4.66605 9.36285 4.81351 9.5219C5.27695 10.1687 5.79306 10.7625 6.39343 11.2821C6.51983 11.4729 6.70942 11.5896 6.87794 11.738C7.04647 11.8865 7.21499 12.0455 7.39405 12.1728C7.83643 12.5015 8.25774 12.8514 8.77385 13.0635C8.96344 13.2013 9.1741 13.3179 9.40582 13.3816C9.75341 13.5618 10.1221 13.6785 10.5012 13.7315C10.9752 13.7951 11.4597 13.8163 11.8494 13.4558C12.2181 13.1271 12.5657 12.7772 12.9027 12.4166C13.2187 12.0667 13.2398 11.5154 12.9343 11.176C12.7131 10.9216 12.4498 10.6883 12.2181 10.4444C12.0812 10.3066 11.9442 10.1581 11.7968 10.0203C11.1332 9.14018 10.4275 9.18259 9.90087 10.1475C9.67968 10.5398 9.21623 10.7307 8.77385 10.5823C8.57373 10.5186 8.38414 10.4232 8.19455 10.3384C8.00496 10.2005 7.80483 10.0521 7.61524 9.91423C7.07807 9.39466 6.58302 8.85389 6.33024 8.12225C6.26704 7.87837 6.22491 7.64509 6.34077 7.41182C6.46716 7.13613 6.68835 6.98768 6.95167 6.87104C7.37299 6.69078 7.56258 6.37268 7.53098 5.94854C7.55204 5.73647 7.45725 5.54561 7.32032 5.40776C6.92007 4.98362 6.49876 4.57009 6.09851 4.14595C5.91946 3.94449 5.7404 3.76423 5.45601 3.72181Z" fill="#9B9B9B"/>
</svg>
