<svg width="18" height="17" viewBox="0 0 18 17" fill="none" xmlns="http://www.w3.org/2000/svg">
<path class="fill" d="M9.55115 0C9.87283 0.0284744 10.1845 0.0664403 10.5061 0.0949147C11.2902 0.246778 12.0643 0.474574 12.7981 0.768809C13.0193 0.882707 13.2404 0.987113 13.4616 1.10101C14.0647 1.4522 14.6277 1.84135 15.1605 2.28744C15.3112 2.42982 15.462 2.58168 15.6229 2.72405C16.0953 3.23659 16.5175 3.7871 16.8895 4.36608C16.9599 4.55591 17.0704 4.72675 17.171 4.88811C17.4926 5.60946 17.7339 6.34979 17.8947 7.1186C17.9249 7.37487 17.9551 7.62165 17.9953 7.87792C18.0053 8.61826 18.0154 9.35859 17.8445 10.0799C17.7641 10.4406 17.6635 10.7918 17.563 11.1525C17.3519 11.646 17.1408 12.1396 16.8895 12.6237C16.3969 13.383 15.834 14.1043 15.1403 14.7118C14.5975 15.1864 13.9944 15.5755 13.3711 15.9457C12.8584 16.183 12.3457 16.3918 11.813 16.5816C10.667 16.9233 9.49083 17.0372 8.29458 16.9897C8.04327 16.9613 7.79196 16.9328 7.54064 16.8948C6.72639 16.7524 5.94229 16.5152 5.1783 16.2114C4.99736 16.107 4.81641 16.0026 4.62541 15.9362C4.27358 15.623 3.89158 15.585 3.41911 15.7369C2.62496 15.9931 1.81071 16.1925 1.00651 16.4108C0.996456 16.4108 0.986403 16.4108 0.986403 16.4108C0.825563 16.4108 0.644618 16.5911 0.53404 16.4772C0.45362 16.3918 0.644618 16.2209 0.644618 16.0786C0.986403 15.2433 1.32819 14.4081 1.66997 13.5633C1.70013 13.4969 1.69008 13.4494 1.64987 13.3925C1.48903 13.1647 1.32819 12.9369 1.16735 12.7091C1.04672 12.5003 0.936141 12.2915 0.81551 12.0826C0.503882 11.3898 0.262622 10.6684 0.101782 9.91859C0.0716242 9.6813 0.0414666 9.44402 0.00125656 9.20673C0.00125656 8.53283 -0.0188485 7.85894 0.101782 7.18504C0.172149 6.76742 0.302832 6.35929 0.403357 5.94166C0.57425 5.46709 0.785353 5.0115 1.00651 4.55591C1.63982 3.47388 2.45407 2.53422 3.48948 1.77491C3.91169 1.46169 4.3741 1.20542 4.82647 0.949147C5.30899 0.740335 5.80156 0.550505 6.29413 0.379659C6.96765 0.199321 7.65122 0.0664403 8.34485 0.00949147C8.38506 0.0379659 8.41521 0.0284744 8.44537 0C8.81731 0 9.18926 0 9.55115 0ZM6.59571 10.3932C6.72639 10.5545 6.87718 10.6874 7.04807 10.8203C7.56075 11.3138 8.11364 11.7504 8.73689 12.1111C8.88768 12.244 9.06863 12.3389 9.25962 12.4338C9.36015 12.5003 9.47073 12.5667 9.57125 12.6237C10.1744 12.9179 10.7776 13.1931 11.4611 13.2501C11.9638 13.3545 12.4262 13.2786 12.8082 12.9464C13.15 12.6521 13.4716 12.3484 13.7833 12.0257C14.0848 11.722 14.1351 11.3138 13.9441 10.9627C13.924 10.8772 13.8737 10.8203 13.8134 10.7633C13.351 10.3267 12.8785 9.89011 12.4161 9.45351C12.2754 9.28266 12.0944 9.18775 11.8733 9.16876C11.4712 9.07385 11.0389 9.27317 10.868 9.63384C10.5363 10.3267 10.0136 10.4976 9.27973 10.1559C8.948 10.004 8.65647 9.7952 8.36495 9.58639C8.21416 9.44401 8.05332 9.30164 7.90253 9.15927C7.60096 8.79859 7.29938 8.43792 7.13854 8.00131C6.92744 7.41284 7.11844 6.99521 7.73164 6.75793C8.13374 6.59657 8.31469 6.3403 8.31469 5.93217C8.32474 5.66641 8.21416 5.44811 8.00306 5.27726C7.54064 4.85014 7.09833 4.41353 6.63592 3.98642C6.56555 3.91998 6.48513 3.86303 6.3846 3.83455C5.99256 3.62574 5.57035 3.6732 5.23862 3.97693C4.9471 4.24269 4.65557 4.51794 4.36405 4.79319C3.972 5.16336 3.87148 5.61895 3.972 6.122C4.04237 6.90979 4.40426 7.59318 4.82647 8.25758C4.91694 8.42843 5.00741 8.59927 5.1582 8.73215C5.57035 9.3491 6.04282 9.8996 6.59571 10.3932Z" fill="#9B9B9B"/>
</svg>
